<?xml version="1.0" encoding="utf-8"?>
<!-- Generator: Adobe Illustrator 17.0.0, SVG Export Plug-In . SVG Version: 6.00 Build 0)  -->
<!DOCTYPE svg PUBLIC "-//W3C//DTD SVG 1.1//EN" "http://www.w3.org/Graphics/SVG/1.1/DTD/svg11.dtd">
<svg version="1.1" id="Layer_1" xmlns="http://www.w3.org/2000/svg" xmlns:xlink="http://www.w3.org/1999/xlink" x="0px" y="0px"
	 width="170px" height="175px" viewBox="0 0 170 175" enable-background="new 0 0 170 175" xml:space="preserve">
<g>
	<g>
		<g>
			<g>
				<path fill="#F68632" d="M58.547,76.612c-0.936,0-1.732-0.215-2.396-0.576c-0.192,5.969-0.551,11.912-1.112,17.844h4.009
					c0.542-5.819,0.896-11.648,1.088-17.501C59.659,76.528,59.13,76.612,58.547,76.612z"/>
				<path fill="#F68632" d="M106.881,76.946c-0.247,0-0.482-0.019-0.71-0.048c0.194,5.679,0.538,11.336,1.064,16.983h4.008
					c-0.569-6.02-0.932-12.051-1.117-18.11C109.337,76.488,108.257,76.946,106.881,76.946z"/>
				<path fill="#F68632" d="M115.368,122.274h-4.066c0.683,3.54,1.409,7.086,2.227,10.649c-20.974,3.388-39.808,3.388-60.774,0
					c0.818-3.563,1.543-7.11,2.227-10.649h-4.066c-0.768,3.922-1.587,7.853-2.522,11.807l-0.488,2.064l2.09,0.359
					c11.478,1.968,22.32,2.925,33.146,2.925c10.824,0,21.666-0.956,33.147-2.925l2.09-0.359l-0.488-2.063
					C116.955,130.127,116.135,126.196,115.368,122.274z"/>
			</g>
		</g>
		<g>
			<path fill="#F68632" d="M102.124,78.859c-6.91,0-13.6-1.594-18.983-4.508c-5.383,2.914-12.073,4.508-18.983,4.508
				c-16.896,0-30.642-9.47-30.642-21.109c0-11.641,13.746-21.111,30.642-21.111c6.91,0,13.601,1.595,18.983,4.507
				c5.382-2.912,12.072-4.507,18.983-4.507c16.896,0,30.643,9.47,30.643,21.111C132.767,69.389,119.02,78.859,102.124,78.859z
				 M83.142,69.749l1.014,0.598c4.938,2.92,11.32,4.528,17.968,4.528c14.7,0,26.658-7.682,26.658-17.125
				c0-9.444-11.958-17.125-26.658-17.125c-6.648,0-13.03,1.607-17.968,4.526l-1.014,0.6l-1.014-0.6
				c-4.939-2.918-11.321-4.526-17.97-4.526c-14.699,0-26.657,7.682-26.657,17.125c0,9.443,11.958,17.125,26.657,17.125
				c6.648,0,13.03-1.607,17.97-4.528L83.142,69.749z"/>
		</g>
		<g>
			<path fill="#F68632" d="M85.053,44.642c0,0-0.068,0.032-0.195,0.093c-0.095,0.038-0.291,0.149-0.532,0.279
				c-0.483,0.282-1.183,0.712-1.987,1.319c-0.795,0.612-1.72,1.367-2.619,2.286c-0.467,0.443-0.904,0.946-1.358,1.453
				c-0.459,0.505-0.864,1.068-1.307,1.608c-0.401,0.573-0.802,1.146-1.197,1.71c-0.359,0.593-0.714,1.177-1.056,1.741
				c-0.307,0.588-0.604,1.158-0.884,1.697c-0.284,0.543-0.488,1.083-0.712,1.57c-0.456,0.973-0.722,1.828-0.943,2.416
				c-0.214,0.594-0.336,0.932-0.336,0.932s0.062-0.354,0.17-0.973c0.117-0.619,0.232-1.521,0.518-2.571
				c0.139-0.524,0.251-1.11,0.441-1.707c0.19-0.599,0.391-1.231,0.597-1.884c0.251-0.643,0.51-1.307,0.773-1.979
				c0.308-0.662,0.622-1.332,0.936-2.001c0.362-0.647,0.691-1.32,1.084-1.942c0.389-0.625,0.766-1.248,1.187-1.817
				c0.8-1.167,1.669-2.18,2.449-3.029c0.786-0.844,1.518-1.497,2.052-1.949c0.279-0.223,0.487-0.394,0.682-0.527
				c0.16-0.114,0.245-0.175,0.245-0.175L85.053,44.642z"/>
		</g>
		<g>
			<path fill="#F68632" d="M124.645,54.856c0,0,0.232,0.627,0.335,1.799c0.047,0.584,0.078,1.309-0.022,2.131
				c-0.072,0.829-0.274,1.754-0.599,2.743c-0.36,0.971-0.826,2.018-1.521,3.001c-0.352,0.486-0.693,1.012-1.134,1.463
				c-0.413,0.48-0.865,0.946-1.375,1.354c-0.491,0.435-1.003,0.862-1.568,1.22c-0.548,0.387-1.107,0.779-1.723,1.063l-0.907,0.472
				c-0.171,0.085-0.261,0.142-0.499,0.25l-0.449,0.188c-0.61,0.246-1.179,0.514-1.825,0.744l-1.992,0.614
				c-0.662,0.154-1.32,0.307-1.975,0.459c-0.662,0.112-1.321,0.21-1.973,0.293c-0.656,0.043-1.303,0.086-1.94,0.128
				c-0.639-0.004-1.266,0.022-1.878-0.013c-0.612-0.056-1.209-0.088-1.787-0.161c-1.157-0.138-2.235-0.358-3.209-0.628
				c-1.954-0.52-3.485-1.234-4.496-1.812c-0.513-0.277-0.881-0.559-1.134-0.737c-0.245-0.19-0.376-0.293-0.376-0.293
				s0.613,0.26,1.712,0.542c1.096,0.291,2.676,0.609,4.572,0.802c0.949,0.093,1.977,0.129,3.057,0.148
				c1.082,0,2.216-0.086,3.382-0.182c0.579-0.08,1.168-0.163,1.764-0.246c0.589-0.129,1.185-0.249,1.788-0.354
				c0.593-0.152,1.192-0.307,1.791-0.461l1.731-0.573c0.587-0.189,1.208-0.461,1.81-0.688l0.453-0.178l0.37-0.18l0.817-0.402
				c0.556-0.25,1.06-0.562,1.568-0.86c0.524-0.278,0.991-0.617,1.441-0.963c0.479-0.319,0.875-0.706,1.286-1.067
				c0.434-0.342,0.768-0.755,1.126-1.138c0.686-0.785,1.235-1.612,1.701-2.412c0.412-0.824,0.774-1.607,1-2.341
				c0.238-0.73,0.395-1.393,0.489-1.948C124.654,55.524,124.645,54.856,124.645,54.856z"/>
		</g>
		<g>
			<path fill="#F68632" d="M41.73,60.743c0,0-0.232-0.628-0.335-1.8c-0.047-0.583-0.078-1.308,0.022-2.13
				c0.072-0.829,0.274-1.755,0.599-2.743c0.36-0.971,0.826-2.018,1.521-3.002c0.352-0.485,0.692-1.011,1.133-1.462
				c0.413-0.48,0.865-0.946,1.375-1.354c0.491-0.435,1.002-0.861,1.567-1.221c0.549-0.386,1.108-0.778,1.724-1.063l0.907-0.472
				c0.171-0.084,0.261-0.142,0.499-0.25l0.449-0.189c0.609-0.245,1.178-0.513,1.825-0.744l1.992-0.614
				c0.662-0.153,1.321-0.306,1.975-0.458c0.662-0.112,1.321-0.21,1.973-0.293c0.656-0.043,1.303-0.086,1.94-0.129
				c0.639,0.005,1.266-0.021,1.877,0.014c0.612,0.056,1.21,0.088,1.787,0.161c1.157,0.138,2.235,0.359,3.209,0.627
				c1.954,0.521,3.484,1.235,4.496,1.813c0.513,0.277,0.881,0.559,1.134,0.736c0.245,0.191,0.376,0.293,0.376,0.293
				c0,0.001-0.613-0.259-1.712-0.541c-1.095-0.291-2.676-0.61-4.572-0.802c-0.949-0.093-1.977-0.129-3.057-0.148
				c-1.083,0-2.216,0.087-3.382,0.182c-0.579,0.08-1.168,0.163-1.764,0.246c-0.589,0.129-1.184,0.249-1.788,0.354
				c-0.593,0.152-1.191,0.307-1.792,0.462l-1.731,0.572c-0.587,0.19-1.209,0.463-1.81,0.688l-0.453,0.178l-0.37,0.18l-0.817,0.401
				c-0.556,0.25-1.06,0.563-1.568,0.86c-0.524,0.279-0.991,0.618-1.441,0.964c-0.478,0.319-0.875,0.706-1.286,1.066
				c-0.434,0.343-0.768,0.756-1.125,1.139c-0.686,0.786-1.235,1.612-1.701,2.412c-0.411,0.824-0.774,1.607-1,2.341
				c-0.238,0.729-0.396,1.394-0.489,1.948C41.721,60.075,41.73,60.743,41.73,60.743z"/>
		</g>
		<g>
			<rect x="90.606" y="75.78" fill="#F68632" width="3.985" height="17.101"/>
		</g>
		<g>
			<rect x="90.606" y="121.274" fill="#F68632" width="3.985" height="15.162"/>
		</g>
	</g>
	<text transform="matrix(1 0 0 1 7.9552 115.4939)" fill="#F68632" font-family="'GreatVibes-Regular'" font-size="24.5513">Auntie Clarie&apos;s</text>
	<g>
		<polygon fill="#F68632" points="83.141,8.839 85.587,13.793 91.055,14.589 87.099,18.444 88.033,23.893 83.141,21.321 
			78.249,23.893 79.184,18.444 75.228,14.589 80.695,13.793 		"/>
		<g>
			<g>
				<polygon fill="#F68632" points="98.414,14.882 100.204,18.509 104.208,19.092 101.311,21.914 101.994,25.9 98.414,24.018 
					94.834,25.9 95.519,21.914 92.622,19.092 96.624,18.509 				"/>
				<polygon fill="#F68632" points="109.371,22.294 110.543,24.67 113.163,25.049 111.267,26.898 111.715,29.507 109.371,28.275 
					107.029,29.507 107.476,26.898 105.58,25.049 108.2,24.67 				"/>
			</g>
			<g>
				<polygon fill="#F68632" points="67.869,14.882 66.078,18.509 62.075,19.092 64.972,21.914 64.288,25.9 67.869,24.018 
					71.449,25.9 70.764,21.914 73.661,19.092 69.659,18.509 				"/>
				<polygon fill="#F68632" points="56.911,22.294 55.739,24.67 53.119,25.049 55.016,26.898 54.569,29.507 56.911,28.275 
					59.254,29.507 58.806,26.898 60.703,25.049 58.083,24.67 				"/>
			</g>
		</g>
	</g>
	<text transform="matrix(1 0 0 1 53.127 156.3158)" fill="#F68632" font-family="'DeValencia-Regular'" font-size="19">Kitchen</text>
</g>
</svg>
